<svg width="254" height="51" viewBox="0 0 254 51" fill="none" xmlns="http://www.w3.org/2000/svg">
<path d="M70.1124 27.833H84.0221V23.472H70.1124V15.3931H85.275V10.8586H70.1124H68.5584H65.1442V41.0945H68.5584H70.1124H85.4919V36.56H70.1124V27.833Z" fill="white"/>
<path d="M105.016 22.6707C104.418 21.9818 103.706 21.4025 102.877 20.9432C101.652 20.267 100.249 19.9276 98.6667 19.9276C96.7937 19.9276 95.1019 20.4099 93.5913 21.3744C92.0781 22.339 90.8838 23.6353 90.006 25.2633C89.1282 26.8913 88.6893 28.7261 88.6893 30.77C88.6893 32.814 89.1282 34.6079 90.006 36.2333C90.8838 37.8614 92.0806 39.15 93.5913 40.0993C95.1019 41.0485 96.7937 41.5257 98.6667 41.5257C100.251 41.5257 101.662 41.1863 102.9 40.5101C103.724 40.0584 104.429 39.4945 105.016 38.8208V41.0945H109.767V9.99359H105.016V22.6707ZM102.533 36.2359C101.655 36.7692 100.624 37.0346 99.445 37.0346C98.2661 37.0346 97.2786 36.7692 96.4008 36.2359C95.5229 35.7026 94.8314 34.9626 94.3262 34.0108C93.8209 33.0615 93.5709 31.9668 93.5709 30.7266C93.5709 29.4865 93.8235 28.3943 94.3262 27.4425C94.8289 26.4933 95.5204 25.7507 96.4008 25.2174C97.2786 24.6841 98.2942 24.4187 99.445 24.4187C100.596 24.4187 101.655 24.6841 102.533 25.2174C103.41 25.7507 104.094 26.4907 104.584 27.4425C105.074 28.3918 105.319 29.4865 105.319 30.7266C105.319 31.9668 105.074 33.059 104.584 34.0108C104.094 34.96 103.41 35.7026 102.533 36.2359Z" fill="white"/>
<path d="M127.823 32.1964C127.823 33.7224 127.456 34.8962 126.721 35.7179C125.986 36.5395 124.929 36.9478 123.546 36.9478C122.653 36.9478 121.883 36.7615 121.234 36.3864C120.586 36.0113 120.096 35.4729 119.765 34.7661C119.433 34.0618 119.267 33.2044 119.267 32.1964V20.3614H114.516V32.4133C114.516 34.1996 114.896 35.7766 115.661 37.1443C116.424 38.5121 117.491 39.5838 118.859 40.3621C120.226 41.1404 121.788 41.5282 123.546 41.5282C125.304 41.5282 126.902 41.1455 128.254 40.3825C129.607 39.6195 130.666 38.5529 131.429 37.1851C132.192 35.8174 132.574 34.2251 132.574 32.4108V20.3588H127.823V32.1939V32.1964Z" fill="white"/>
<path d="M156.441 35.9322C155.16 36.4936 153.596 36.7743 151.753 36.7743C150.256 36.7743 148.888 36.514 147.65 35.996C146.413 35.478 145.338 34.7355 144.432 33.7709C143.524 32.8063 142.827 31.6606 142.337 30.3362C141.848 29.0119 141.603 27.5574 141.603 25.9727C141.603 24.3881 141.848 22.9336 142.337 21.6092C142.827 20.2848 143.527 19.1391 144.432 18.1745C145.338 17.21 146.413 16.4674 147.65 15.9494C148.888 15.4314 150.256 15.1711 151.753 15.1711C153.453 15.1711 154.943 15.4442 156.224 15.9928C157.505 16.5414 158.592 17.3044 159.485 18.2817L162.854 14.9134C161.471 13.5303 159.889 12.4382 158.102 11.6293C156.316 10.8229 154.201 10.4197 151.753 10.4197C149.564 10.4197 147.541 10.8229 145.685 11.6293C143.828 12.4356 142.207 13.5456 140.827 14.9542C139.444 16.3653 138.38 18.0138 137.629 19.8995C136.879 21.7853 136.507 23.8088 136.507 25.9676C136.507 28.1264 136.882 30.15 137.629 32.0357C138.377 33.9215 139.444 35.5775 140.827 37.004C142.21 38.4304 143.83 39.5379 145.685 40.3289C147.543 41.12 149.567 41.5181 151.753 41.5181C154.173 41.5181 156.319 41.1149 158.189 40.3085C160.059 39.5022 161.688 38.3947 163.071 36.9836L159.702 33.6152C158.809 34.5951 157.722 35.3658 156.441 35.9271V35.9322Z" fill="white"/>
<path d="M181.948 20.9661C180.739 20.2746 179.356 19.9301 177.802 19.9301C176.248 19.9301 174.901 20.2822 173.676 20.9891C172.877 21.4484 172.196 22.0225 171.624 22.7013V9.99609H166.873V41.097H171.624V29.1318C171.624 28.2106 171.826 27.3889 172.229 26.6693C172.632 25.9497 173.193 25.3883 173.913 24.9851C174.633 24.582 175.454 24.3804 176.375 24.3804C177.759 24.3804 178.886 24.8269 179.767 25.72C180.645 26.6132 181.083 27.7512 181.083 29.1318V41.097H185.835V28.0957C185.835 26.483 185.49 25.0642 184.799 23.8419C184.107 22.6171 183.158 21.6602 181.948 20.9687V20.9661Z" fill="white"/>
<path d="M205.167 21.2673C203.684 20.3742 201.977 19.9276 200.048 19.9276C198.119 19.9276 196.254 20.4022 194.626 21.354C192.998 22.3033 191.709 23.5945 190.76 25.22C189.81 26.848 189.333 28.6827 189.333 30.7267C189.333 32.7706 189.816 34.6156 190.78 36.2563C191.745 37.8971 193.054 39.1858 194.712 40.1222C196.368 41.0587 198.234 41.5257 200.306 41.5257C201.919 41.5257 203.444 41.2221 204.884 40.6173C206.323 40.0125 207.548 39.1194 208.556 37.9379L205.532 34.8707C204.899 35.5903 204.128 36.139 203.22 36.5115C202.312 36.8866 201.327 37.0729 200.26 37.0729C199.022 37.0729 197.928 36.8075 196.976 36.2742C196.027 35.7409 195.292 34.9856 194.774 34.0057C194.526 33.5387 194.34 33.0335 194.21 32.495H209.676C209.763 32.0638 209.826 31.6683 209.87 31.3059C209.913 30.9461 209.934 30.594 209.934 30.2469C209.934 28.2591 209.507 26.4882 208.66 24.9342C207.811 23.3801 206.644 22.1553 205.162 21.2622L205.167 21.2673ZM194.735 27.2512C195.225 26.3147 195.917 25.5874 196.81 25.0694C197.703 24.5514 198.754 24.2911 199.964 24.2911C201.173 24.2911 202.087 24.5208 202.881 24.9827C203.672 25.4445 204.284 26.1054 204.715 26.9705C204.958 27.4528 205.139 28.0014 205.261 28.6113H194.23C194.35 28.1239 194.518 27.6671 194.735 27.2512Z" fill="white"/>
<path d="M220.156 25.3067C221.062 24.7734 222.106 24.508 223.287 24.508C224.295 24.508 225.224 24.6892 226.074 25.049C226.923 25.4088 227.651 25.9498 228.255 26.6694L231.366 23.5154C230.386 22.3646 229.199 21.4791 227.801 20.859C226.403 20.2389 224.9 19.9302 223.287 19.9302C221.243 19.9302 219.393 20.4048 217.737 21.3566C216.081 22.3059 214.777 23.5971 213.828 25.2225C212.878 26.8505 212.401 28.6853 212.401 30.7292C212.401 32.7732 212.876 34.5747 213.828 36.2155C214.777 37.8563 216.081 39.1526 217.737 40.1044C219.393 41.0537 221.243 41.5308 223.287 41.5308C224.9 41.5308 226.403 41.2221 227.801 40.602C229.197 39.9819 230.386 39.0965 231.366 37.9456L228.255 34.7916C227.651 35.5112 226.923 36.0522 226.074 36.412C225.224 36.7718 224.295 36.953 223.287 36.953C222.106 36.953 221.062 36.6876 220.156 36.1543C219.248 35.621 218.543 34.8886 218.041 33.9521C217.535 33.0156 217.285 31.9439 217.285 30.7343C217.285 29.5248 217.538 28.4173 218.041 27.4936C218.543 26.5724 219.25 25.8452 220.156 25.3118V25.3067Z" fill="white"/>
<path d="M254 41.0945L244.832 30.3031L253.569 20.3614H247.909L239.529 30.1091V9.99359H234.778V41.0945H239.529V30.9282L247.952 41.0945H254Z" fill="white"/>
<path d="M24.7956 0.902136L0.902184 24.7956C0.403921 25.2938 0.403921 26.1017 0.902184 26.5999L5.67654 31.3743C6.1748 31.8726 6.98265 31.8726 7.48091 31.3743L31.3743 7.48086C31.8726 6.9826 31.8726 6.17476 31.3743 5.67649L26.6 0.902137C26.1017 0.403875 25.2939 0.403875 24.7956 0.902136Z" fill="white"/>
<path d="M34.3241 10.4279L19.9722 24.7799C19.4739 25.2781 19.4739 26.086 19.9722 26.5843L24.7465 31.3586C25.2448 31.8569 26.0527 31.8569 26.5509 31.3586L40.9029 17.0067C41.4011 16.5084 41.4011 15.7006 40.9029 15.2023L36.1285 10.4279C35.6302 9.92968 34.8224 9.92968 34.3241 10.4279Z" fill="white"/>
<path d="M43.9799 19.8357L26.087 37.7286C25.8292 37.9863 25.4107 37.9863 25.153 37.7286L16.8649 29.4405C16.4362 29.0118 15.7396 29.0118 15.3109 29.4405L10.3043 34.4471C9.87561 34.8758 9.87561 35.5724 10.3043 36.0011L19.0594 44.7562L24.8596 50.5563C25.2882 50.985 25.9849 50.985 26.4136 50.5563L32.1984 44.7715L50.5583 26.4116C50.987 25.9829 50.987 25.2862 50.5583 24.8575L45.5339 19.8331C45.1052 19.4044 44.4086 19.4044 43.9799 19.8331V19.8357Z" fill="white"/>
</svg>
