<svg width="706" height="706" viewBox="0 0 706 706" fill="none" xmlns="http://www.w3.org/2000/svg">
<path d="M353.792 2.60654L2.60655 353.792C1.16699 355.232 1.16699 357.566 2.60655 359.005L88.6331 445.032C90.0727 446.472 92.4067 446.472 93.8462 445.032L445.032 93.8462C446.472 92.4067 446.472 90.0727 445.032 88.6331L359.005 2.60654C357.566 1.16699 355.232 1.16697 353.792 2.60654Z" fill="#0FB587"/>
<path d="M485.933 134.748L267.087 353.594C265.648 355.034 265.648 357.368 267.087 358.807L353.109 444.829C354.548 446.268 356.882 446.268 358.322 444.829L577.168 225.983C578.607 224.543 578.607 222.209 577.168 220.77L491.146 134.748C489.707 133.309 487.373 133.309 485.933 134.748Z" fill="#0FB587"/>
<path d="M609.947 275.109L361.798 523.258C358.222 526.834 352.435 526.834 348.859 523.258L233.923 408.322C227.966 402.365 218.315 402.365 212.359 408.322L142.918 477.763C136.961 483.72 136.961 493.37 142.918 499.327L264.327 620.737L344.782 701.192C350.739 707.149 360.39 707.149 366.347 701.192L446.574 620.965L701.188 366.351C707.145 360.394 707.145 350.743 701.188 344.786L631.511 275.109C625.554 269.152 615.904 269.152 609.947 275.109Z" fill="#0FB587"/>
</svg>
