<svg width="255" height="52" viewBox="0 0 255 52" fill="none" xmlns="http://www.w3.org/2000/svg">
<path d="M70.3885 27.9425H84.3529V23.5644H70.3885V15.4537H85.6107V10.9014H70.3885H68.8283H65.4006V41.2562H68.8283H70.3885H85.8285V36.7039H70.3885V27.9425Z" fill="black"/>
<path d="M105.429 22.76C104.829 22.0683 104.115 21.4867 103.282 21.0256C102.052 20.3467 100.643 20.006 99.0551 20.006C97.1748 20.006 95.4763 20.4902 93.9597 21.4586C92.4405 22.4269 91.2416 23.7283 90.3603 25.3628C89.4791 26.9972 89.0385 28.8391 89.0385 30.8911C89.0385 32.9431 89.4791 34.7441 90.3603 36.376C91.2416 38.0104 92.4431 39.3041 93.9597 40.2571C95.4763 41.2101 97.1748 41.6892 99.0551 41.6892C100.646 41.6892 102.063 41.3484 103.305 40.6696C104.133 40.2161 104.84 39.65 105.429 38.9736V41.2562H110.199V10.0329H105.429V22.76ZM102.936 36.3785C102.055 36.9139 101.02 37.1804 99.8365 37.1804C98.6529 37.1804 97.6615 36.9139 96.7802 36.3785C95.899 35.8431 95.2047 35.1002 94.6975 34.1446C94.1903 33.1916 93.9392 32.0926 93.9392 30.8476C93.9392 29.6025 94.1928 28.5061 94.6975 27.5505C95.2022 26.5975 95.8964 25.8521 96.7802 25.3166C97.6615 24.7812 98.6811 24.5148 99.8365 24.5148C100.992 24.5148 102.055 24.7812 102.936 25.3166C103.818 25.8521 104.504 26.595 104.996 27.5505C105.488 28.5035 105.734 29.6025 105.734 30.8476C105.734 32.0926 105.488 33.1891 104.996 34.1446C104.504 35.0976 103.818 35.8431 102.936 36.3785Z" fill="black"/>
<path d="M128.326 32.3232C128.326 33.8552 127.957 35.0336 127.22 35.8585C126.482 36.6834 125.421 37.0933 124.033 37.0933C123.136 37.0933 122.362 36.9063 121.712 36.5297C121.061 36.1531 120.569 35.6126 120.236 34.9029C119.903 34.1959 119.737 33.3351 119.737 32.3232V20.4415H114.967V32.5409C114.967 34.3342 115.348 35.9174 116.117 37.2905C116.883 38.6637 117.954 39.7396 119.327 40.521C120.7 41.3023 122.268 41.6917 124.033 41.6917C125.798 41.6917 127.402 41.3075 128.759 40.5415C130.117 39.7755 131.18 38.7047 131.946 37.3315C132.712 35.9584 133.096 34.3598 133.096 32.5384V20.439H128.326V32.3206V32.3232Z" fill="black"/>
<path d="M157.057 36.0737C155.771 36.6373 154.201 36.9191 152.351 36.9191C150.847 36.9191 149.474 36.6578 148.232 36.1377C146.989 35.6177 145.911 34.8722 145.001 33.9038C144.089 32.9355 143.39 31.7852 142.898 30.4556C142.406 29.1261 142.16 27.6658 142.16 26.0749C142.16 24.4841 142.406 23.0238 142.898 21.6942C143.39 20.3647 144.092 19.2144 145.001 18.2461C145.911 17.2777 146.989 16.5322 148.232 16.0122C149.474 15.4921 150.847 15.2308 152.351 15.2308C154.057 15.2308 155.553 15.5049 156.839 16.0557C158.125 16.6065 159.217 17.3725 160.113 18.3537L163.495 14.9721C162.106 13.5836 160.518 12.4871 158.725 11.675C156.932 10.8655 154.808 10.4607 152.351 10.4607C150.153 10.4607 148.121 10.8655 146.259 11.675C144.394 12.4846 142.767 13.5989 141.381 15.0131C139.993 16.4297 138.925 18.0847 138.171 19.9778C137.418 21.871 137.044 23.9025 137.044 26.0698C137.044 28.2371 137.421 30.2686 138.171 32.1618C138.922 34.055 139.993 35.7176 141.381 37.1496C142.77 38.5817 144.397 39.6935 146.259 40.4877C148.124 41.2818 150.156 41.6815 152.351 41.6815C154.78 41.6815 156.934 41.2767 158.812 40.4672C160.69 39.6576 162.324 38.5458 163.713 37.1291L160.331 33.7476C159.434 34.7313 158.343 35.505 157.057 36.0686V36.0737Z" fill="black"/>
<path d="M182.665 21.0487C181.45 20.3545 180.062 20.0086 178.502 20.0086C176.942 20.0086 175.589 20.3621 174.359 21.0718C173.557 21.5329 172.873 22.1093 172.3 22.7907V10.0355H167.53V41.2588H172.3V29.2465C172.3 28.3217 172.502 27.4968 172.907 26.7743C173.312 26.0519 173.875 25.4883 174.598 25.0836C175.32 24.6788 176.145 24.4764 177.07 24.4764C178.458 24.4764 179.591 24.9247 180.474 25.8213C181.356 26.718 181.796 27.8606 181.796 29.2465V41.2588H186.566V28.2064C186.566 26.5873 186.22 25.163 185.526 23.9359C184.832 22.7062 183.879 21.7455 182.665 21.0513V21.0487Z" fill="black"/>
<path d="M205.975 21.351C204.486 20.4543 202.772 20.006 200.836 20.006C198.899 20.006 197.026 20.4825 195.392 21.4381C193.757 22.3911 192.464 23.6873 191.511 25.3192C190.558 26.9536 190.079 28.7956 190.079 30.8476C190.079 32.8996 190.563 34.7518 191.531 36.399C192.5 38.0463 193.814 39.34 195.479 40.2802C197.142 41.2203 199.014 41.6892 201.094 41.6892C202.713 41.6892 204.245 41.3843 205.69 40.7772C207.135 40.17 208.365 39.2734 209.377 38.0873L206.341 35.008C205.706 35.7304 204.932 36.2812 204.02 36.6552C203.108 37.0318 202.119 37.2188 201.048 37.2188C199.806 37.2188 198.707 36.9524 197.751 36.417C196.798 35.8815 196.06 35.1232 195.54 34.1395C195.292 33.6707 195.105 33.1635 194.974 32.6229H210.501C210.588 32.19 210.652 31.7929 210.696 31.4291C210.74 31.0679 210.76 30.7144 210.76 30.366C210.76 28.3703 210.332 26.5924 209.482 25.0323C208.629 23.4721 207.458 22.2425 205.97 21.3458L205.975 21.351ZM195.502 27.3584C195.994 26.4182 196.688 25.6881 197.585 25.1681C198.481 24.648 199.537 24.3867 200.751 24.3867C201.965 24.3867 202.883 24.6173 203.679 25.081C204.473 25.5446 205.088 26.2082 205.521 27.0766C205.765 27.5608 205.946 28.1116 206.069 28.7238H194.995C195.115 28.2345 195.284 27.776 195.502 27.3584Z" fill="black"/>
<path d="M221.023 25.4063C221.932 24.8709 222.98 24.6045 224.166 24.6045C225.178 24.6045 226.111 24.7863 226.964 25.1476C227.817 25.5088 228.547 26.0519 229.154 26.7743L232.277 23.6079C231.293 22.4525 230.102 21.5636 228.698 20.9411C227.294 20.3186 225.785 20.0086 224.166 20.0086C222.114 20.0086 220.257 20.4851 218.594 21.4406C216.932 22.3936 215.622 23.6899 214.669 25.3218C213.716 26.9562 213.237 28.7981 213.237 30.8501C213.237 32.9022 213.714 34.7108 214.669 36.358C215.622 38.0053 216.932 39.3067 218.594 40.2622C220.257 41.2152 222.114 41.6943 224.166 41.6943C225.785 41.6943 227.294 41.3843 228.698 40.7618C230.099 40.1393 231.293 39.2503 232.277 38.0949L229.154 34.9285C228.547 35.651 227.817 36.1941 226.964 36.5553C226.111 36.9165 225.178 37.0984 224.166 37.0984C222.98 37.0984 221.932 36.832 221.023 36.2965C220.111 35.7611 219.404 35.0259 218.899 34.0857C218.392 33.1455 218.141 32.0696 218.141 30.8553C218.141 29.641 218.394 28.5291 218.899 27.6018C219.404 26.677 220.113 25.9468 221.023 25.4114V25.4063Z" fill="black"/>
<path d="M255 41.2562L245.795 30.4223L254.567 20.4415H248.885L240.472 30.2276V10.0329H235.702V41.2562H240.472V31.05L248.929 41.2562H255Z" fill="black"/>
<path d="M24.8932 0.905736L0.905736 24.8932C0.405512 25.3935 0.405512 26.2045 0.905736 26.7047L5.69889 31.4979C6.19912 31.9981 7.01014 31.9981 7.51036 31.4979L31.4979 7.51036C31.9981 7.01014 31.9981 6.19912 31.4979 5.69889L26.7047 0.905737C26.2045 0.405513 25.3935 0.405512 24.8932 0.905736Z" fill="#0FB587"/>
<path d="M34.4593 10.469L20.0508 24.8774C19.5506 25.3776 19.5506 26.1887 20.0508 26.6889L24.844 31.482C25.3442 31.9823 26.1552 31.9823 26.6554 31.482L41.0639 17.0736C41.5641 16.5734 41.5641 15.7623 41.0639 15.2621L36.2707 10.469C35.7705 9.96873 34.9595 9.96873 34.4593 10.469Z" fill="#0FB587"/>
<path d="M44.153 19.9138L26.1896 37.8772C25.9309 38.136 25.5107 38.136 25.252 37.8772L16.9312 29.5565C16.5008 29.1261 15.8015 29.1261 15.3711 29.5565L10.3448 34.5827C9.91444 35.0131 9.91444 35.7125 10.3448 36.1429L19.1344 44.9324L24.9574 50.7554C25.3878 51.1858 26.0871 51.1858 26.5175 50.7554L32.3251 44.9478L50.7573 26.5156C51.1877 26.0852 51.1877 25.3858 50.7573 24.9555L45.7131 19.9113C45.2828 19.4809 44.5834 19.4809 44.153 19.9113V19.9138Z" fill="#0FB587"/>
</svg>
